PathFileType	4	(X/Y/Z)	59_2_37_p0_0-482.trc
DataRate	CameraRate	NumFrames	NumMarkers	Units	OrigDataRate	OrigDataStartFrame	OrigNumFrames
60.0	60.0	6	27	m	60.0	181	483
Frame#	Time	RHip			RKnee			RAnkle			RBigToe			RSmallToe			RHeel			LHip			LKnee			LAnkle			LBigToe			LSmallToe			LHeel			Neck			Head			Nose			RShoulder			RElbow			RWrist			RThumb			RIndex			RPinky			LShoulder			LElbow			LWrist			LThumb			LIndex			LPinky			
		X1	Y1	Z1	X2	Y2	Z2	X3	Y3	Z3	X4	Y4	Z4	X5	Y5	Z5	X6	Y6	Z6	X7	Y7	Z7	X8	Y8	Z8	X9	Y9	Z9	X10	Y10	Z10	X11	Y11	Z11	X12	Y12	Z12	X13	Y13	Z13	X14	Y14	Z14	X15	Y15	Z15	X16	Y16	Z16	X17	Y17	Z17	X18	Y18	Z18	X19	Y19	Z19	X20	Y20	Z20	X21	Y21	Z21	X22	Y22	Z22	X23	Y23	Z23	X24	Y24	Z24	X25	Y25	Z25	X26	Y26	Z26	X27	Y27	Z27	
181	3.0166666666666666	0.3208449056175916	0.412247424767797	0.9803146314093266	0.29560011055854013	0.5547980872342878	1.4375217872898363	0.28835824707204744	0.7682338361597931	1.9052373639766134	0.2752096262400197	0.5489875122692136	1.9326110438175343	0.33150183497373614	0.5853275104094162	1.931421038796973	0.2819829597212276	0.8276569565095246	1.957136973611587	0.11521148330634408	0.4520322118774181	0.9952197948860134	0.1127150113155113	0.5984785820115014	1.4511513661306568	0.11996130243052015	0.7505755482265377	1.8830719937386515	0.13970758832999924	0.5622051722246937	1.9311547173749597	0.08075988824969288	0.6053438811512718	1.9195806104225666	0.1473641467162213	0.8217167749660383	1.9460593575739566	0.22004934982160382	0.3157891674871601	0.3799617530594766	0.22567013255568397	0.16752440586417144	0.13294799996386925	0.230425996607706	0.15310595769081387	0.2826699787803155	0.3838127023676536	0.36592170696016724	0.46760962736492445	0.4166758598875078	0.36085372814300115	0.7751590164339421	0.2957498931498094	0.31833669530940006	1.011005039329967	0.19086288162557577	0.30212427621126836	1.074878522073777	0.19229769352723658	0.3210556560575927	1.1179186750284078	0.2125466361823292	0.34122758668830405	1.1377230953174982	0.05401263322546151	0.3661305480250984	0.4729873946058208	0.04153906799905148	0.3953587571117418	0.7842871204726276	0.17600926642840825	0.2639230184530553	0.9800431560142042	0.2685174171003686	0.2618153188526511	1.0411526362838248	0.272552192686826	0.26953753952981735	1.0793099265653503	0.2374987390839773	0.33881279880077697	1.1123058573971703
182	3.033333333333333	0.3208403975423749	0.4123242418881766	0.9803009348614554	0.2956435571059509	0.5549270049076204	1.437649256660126	0.28837423847985927	0.7682849307452715	1.9053609283326343	0.27020111873244734	0.5373472667428674	1.9325782090142205	0.33136883487295693	0.584603389852021	1.9313780389367907	0.2820140527671008	0.8277445300731756	1.957246626375914	0.11506620077612088	0.45195498938341305	0.9952334297391447	0.1126067451106493	0.5986779455628942	1.4513530243118695	0.11896043187074327	0.7474136297936238	1.877299058324994	0.13977630226856377	0.562385947435463	1.931225814547609	0.0769391333229878	0.5924579716084364	1.918046494081018	0.14736066987262877	0.8219942433946453	1.946021774260046	0.2197849303391304	0.3143312612144433	0.3769168626112168	0.2255663549608973	0.16766158323557548	0.12976860915156174	0.2304319721203381	0.1531725847339779	0.28267268479840824	0.38386649839390313	0.36593698700609434	0.46760936694389466	0.4166218210693769	0.3608776810774098	0.775196791515086	0.29152614090658463	0.316913392603232	1.010891236478673	0.1909370207358682	0.3019369267282318	1.074848473894166	0.19237785879794725	0.32082786816392317	1.1177676696630148	0.21610193524748184	0.32935226143300167	1.1352924338312014	0.054013891297913445	0.3661102176951435	0.47293361294063324	0.04187000076779764	0.3970415172734681	0.7880086770487703	0.1760217957221923	0.26398779619101015	0.9800749915605087	0.2685391633363175	0.26204316168966274	1.041133430511968	0.27280144369363873	0.26863331787273204	1.0823725417089047	0.23745628991353931	0.3388013866053872	1.1122325325439346
183	3.05	0.3208463491283664	0.4123293572037057	0.980270560999814	0.2956515573877522	0.5548309269578452	1.437692861006301	0.2883589142497482	0.7682315068691848	1.905237058183249	0.2713170125880951	0.5359402112231333	1.927007228819239	0.33127189053236666	0.5844507047260541	1.9312154201594873	0.2820132848967901	0.827850893356431	1.9571834000436774	0.11519766989350587	0.45232334140510455	0.9953346447598627	0.1126572191346408	0.5987825908162963	1.4513482284760573	0.11999292768568612	0.7506247852283432	1.883140700282586	0.1319342320640813	0.5462624470988596	1.9244650995583337	0.07601578855501483	0.6199883530666384	1.925839887573803	0.14743885933841808	0.8221065450702003	1.9461582155659032	0.2197888487687294	0.31434047618437666	0.37688541634683054	0.22923628445485647	0.15709940627393876	0.13467387181101328	0.23039006877863596	0.15321096088348685	0.2826316747168463	0.38390404682186563	0.3659241308782923	0.4676469945686019	0.4166599830650357	0.36091170178176324	0.7751690717418693	0.29150250976017156	0.3168395457336731	1.0109140979399438	0.18789384262917636	0.301434603147	1.074822894431201	0.19229192297674386	0.3209910827229178	1.1178233849481098	0.21207750707018497	0.34231081586947315	1.1409758027093608	0.054017461861268316	0.3661574709287353	0.47295567586604725	0.041541126369167465	0.39527768192589363	0.784316801247501	0.17606539189748235	0.263877751655462	0.9800724154951095	0.2685208657206203	0.2620766219274078	1.0411040953020518	0.2692190754216169	0.2798615245605131	1.0844298926511342	0.23756019880983476	0.33859401926570537	1.1121336623361604
184	3.066666666666667	0.3208548066005734	0.4123530466733526	0.9803616802513644	0.29591527073149115	0.5534775511810377	1.4412192118508111	0.2843947846239847	0.7525273318283686	1.8992461995087107	0.27021840982366757	0.5376565611549856	1.9325603175599608	0.33129291000451266	0.5845130024863465	1.9311784492990003	0.28196398300402525	0.8276218908769709	1.9572122618060543	0.11521327905126748	0.4523076298535489	0.9953005737988108	0.11269403745325737	0.59867917068998	1.4512851766985475	0.11994292502429925	0.7504546705353426	1.8831430855068452	0.1319359356799903	0.5459984850701354	1.9243735017627512	0.07512578161889522	0.6053702719595716	1.92348158344034	0.14392907797988738	0.8073224917815983	1.9403584887945295	0.2198072565982651	0.31437457921839285	0.3768352812118475	0.22924188531454118	0.15714760209426373	0.13465696759372237	0.23039847567151156	0.15318979025645288	0.2825882340181081	0.38371453959688584	0.3663865703078566	0.4643043280672565	0.41664813010602597	0.3608432713423608	0.77513818308146	0.2957618355037007	0.31819889497633663	1.0108486570547246	0.18789171554049047	0.30132808760472235	1.0748351329999182	0.19227381301142057	0.3210615829204751	1.1179399645240182	0.21657639379811838	0.3291840628242441	1.1355324092356498	0.054070541288533405	0.3662120457798358	0.4728710807662472	0.04148477827478191	0.397928780607039	0.7917919249239828	0.17603935391182068	0.26386683593603544	0.9800655416733184	0.26836264192214904	0.2619817863105375	1.0412982607481565	0.26920590680159057	0.2798814823972643	1.0845175184187863	0.23758833653191808	0.3388023548822604	1.1122111474964536
185	3.0833333333333335	0.32084336913963785	0.4123830742131742	0.9803778545085723	0.29591925652634116	0.5533659967712461	1.4411068670531693	0.28832964374164616	0.7683375039327675	1.905289988309902	0.2702179151299783	0.5373042175718061	1.9325441379985557	0.3313350796267639	0.5841380778004839	1.9312892571741285	0.2819838805036805	0.8277386001474719	1.9572651483155281	0.11528967393486104	0.452479671143736	0.9953300764079523	0.11268038591958315	0.5988612926653093	1.4513763858329098	0.11893838634062658	0.7474928612369193	1.8773544891529999	0.13190511448524184	0.5459609783258216	1.9243906078533863	0.07513437878248684	0.6052386290135731	1.9234131845664582	0.14729152878665588	0.8217716491342755	1.9460746576840868	0.2229971556462364	0.32536146616390227	0.3758807260707721	0.22566249413296793	0.1676306596152393	0.13286967805534436	0.22727604868000068	0.14388141605764235	0.2837049144465908	0.383717388645707	0.36644575451335415	0.4642686450577058	0.4166492097995097	0.36084011831107454	0.775190460310393	0.2957462063589094	0.3181961981238305	1.0108620346046004	0.18789279928857147	0.3013839380781257	1.074870729182915	0.19232299110959927	0.3210612663972103	1.1179721031577108	0.21659468408930488	0.3293934827558227	1.1356381696414222	0.05407739864447617	0.3662229318755112	0.47289680568444853	0.04112302661355644	0.3962074585174401	0.7880280229780074	0.17599727272713644	0.2639214481058238	0.9800492879803536	0.26498736090088365	0.27429294468110904	1.0434556940236177	0.26890279960408625	0.28096640801297934	1.0814865626083576	0.23760795666403403	0.33889375815652345	1.1122120613519244
186	3.1	0.32457102916361447	0.4243529547359879	0.9818135532479093	0.296903380835451	0.555983400599051	1.4460809280386036	0.28858744404405123	0.7354850756128215	1.8922655701064277	0.27032148165597636	0.5371208525659775	1.9325122635590195	0.3315279858458825	0.5839027519674452	1.9313209739313089	0.28199920394816375	0.8276560876212687	1.9571855932286746	0.1150246780902271	0.45307046421808883	0.9954767081700334	0.10855674446050277	0.6161742878732163	1.4607208832830316	0.1199937189807715	0.750381918291368	1.8830881179944536	0.13654913360841525	0.548318599272585	1.9251971819926263	0.08074375293290927	0.6052931403877907	1.9195292680239253	0.1485311281714334	0.8203427939541884	1.9401834632668213	0.22304677792055308	0.32544190761606573	0.37578316937309336	0.22564477351782683	0.16771696568989644	0.13257888178519833	0.23037328498375084	0.15323590390833408	0.2824914132693075	0.38389769325407247	0.3663039696240656	0.4642625477562488	0.4166241844617502	0.3608196493096822	0.7751821080133509	0.29144164645296056	0.3168367162331114	1.0109143733314485	0.18829857301764716	0.30041554310722873	1.0779297505295853	0.19235013045856114	0.32101977516773067	1.1179386477487552	0.21611714079202615	0.3306124735409697	1.138793575628768	0.0540900268049778	0.3663673374552823	0.47272025881325397	0.03736658062560109	0.3939534147120774	0.7879667826088371	0.17598830008677852	0.26385877279766007	0.980053784015859	0.2607409825421702	0.2715472564503483	1.043416069791782	0.269001076450098	0.2796951166479031	1.084403547405839	0.2376457120748598	0.3384548626262181	1.1120436573587864
